<svg width="423" height="130" viewBox="0 0 423 130" fill="none" xmlns="http://www.w3.org/2000/svg">
<path d="M20.5996 33.3L44.8296 57.53C45.8396 58.54 47.4696 58.54 48.4696 57.53L54.3896 51.61C67.4696 38.53 74.8196 20.79 74.8196 2.3V0H56.4396V43.15L33.5996 20.31L20.5996 33.31V33.3Z" fill="#F7931E"/>
<path d="M109.13 96.4499L84.9002 72.2199C83.8902 71.2099 82.2602 71.2099 81.2602 72.2199L75.3402 78.1399C62.2602 91.2199 54.9102 108.96 54.9102 127.45V129.74H73.2902V86.5899L96.1301 109.43L109.13 96.4299V96.4499Z" fill="#F7931E"/>
<path d="M96.4397 20.6099L72.2096 44.8399C71.1996 45.8499 71.1996 47.4799 72.2096 48.4799L78.1296 54.3999C91.2096 67.4799 108.95 74.8299 127.44 74.8299H129.73V56.4499H86.5797L109.42 33.6099L96.4196 20.6099H96.4397Z" fill="#F7931E"/>
<path d="M33.29 109.14L57.52 84.9099C58.53 83.8999 58.53 82.2699 57.52 81.2699L51.6 75.3499C38.52 62.2699 20.78 54.9199 2.29 54.9199H0V73.2999H43.15L20.31 96.1399L33.31 109.14H33.29Z" fill="#F7931E"/>
<path d="M164.98 40H217.517V53.0775H199.333V101.032H183.069V53.0775H164.98V40Z" fill="#2B1809"/>
<path d="M238.303 79.2325C238.303 80.545 238.482 81.7263 238.828 82.7882C239.174 83.8502 239.675 84.7451 240.331 85.4849C240.988 86.2247 241.775 86.7974 242.682 87.1911C243.601 87.5849 244.639 87.7758 245.796 87.7758C247.133 87.752 248.326 87.4656 249.388 86.9525C250.45 86.4275 251.345 85.6996 252.096 84.7451C252.836 83.8025 253.409 82.6928 253.791 81.4161C254.184 80.1393 254.375 78.7314 254.375 77.1921H258.086C258.086 81.1774 257.645 84.6854 256.774 87.74C255.903 90.7946 254.662 93.3481 253.063 95.4123C251.464 97.4765 249.507 99.0396 247.18 100.102C244.854 101.164 242.24 101.689 239.329 101.689C236.799 101.689 234.508 101.271 232.444 100.424C230.38 99.5766 228.614 98.3714 227.123 96.8083C225.643 95.2333 224.498 93.3361 223.698 91.1168C222.899 88.8974 222.505 86.4156 222.505 83.6831V53.9009H238.291V79.2325H238.303ZM254.387 53.9009H270.173V101.032H254.387V53.9009Z" fill="#2B1809"/>
<path d="M292.771 89.8523C292.771 75.0804 298.642 62.9217 309.083 52.4812L310.383 51.1807L320.764 61.5615L292.783 89.8403H292.771V89.8523Z" fill="#2B1809"/>
<path d="M293.524 53.9009H277.738V101.032H293.524V53.9009Z" fill="#2B1809"/>
<path d="M342.028 80.9744C339.904 80.9744 338.317 81.3681 337.255 82.1557C336.193 82.9432 335.668 84.1722 335.668 85.8665C335.668 86.6779 335.811 87.4177 336.085 88.0739C336.36 88.7302 336.777 89.291 337.326 89.7563C337.875 90.2217 338.531 90.5796 339.283 90.8302C340.035 91.0808 340.906 91.2001 341.896 91.2001C343.03 91.2001 344.092 91.045 345.106 90.7467C346.108 90.4365 347.015 90.0308 347.826 89.5058C348.638 88.9808 349.342 88.3364 349.915 87.5608C350.487 86.7853 350.917 85.95 351.179 85.0551L353.267 91.9041C352.659 93.4791 351.848 94.8752 350.821 96.1161C349.807 97.357 348.614 98.3832 347.242 99.2065C345.87 100.03 344.33 100.662 342.6 101.104C340.87 101.545 338.985 101.76 336.956 101.76C334.427 101.76 332.172 101.39 330.179 100.674C328.186 99.9463 326.504 98.932 325.12 97.6434C323.736 96.3547 322.686 94.7916 321.958 92.978C321.23 91.1643 320.872 89.1836 320.872 87.0239C320.872 84.7568 321.266 82.7403 322.053 80.9625C322.841 79.1846 323.998 77.6931 325.526 76.476C327.053 75.259 328.938 74.3283 331.193 73.6839C333.448 73.0396 336.038 72.7294 338.973 72.7294H352.659V81.0102H342.016V80.9744H342.028ZM351.144 72.1686C351.144 69.9254 350.392 68.1952 348.9 66.9543C347.409 65.7134 345.189 65.1048 342.254 65.1048C341.264 65.1048 340.214 65.1884 339.116 65.3435C338.006 65.4986 336.849 65.7492 335.632 66.0594C334.415 66.3816 333.174 66.7753 331.921 67.2407C330.668 67.706 329.392 68.2429 328.091 68.8515L323.867 58.3871C325.728 57.5399 327.554 56.8002 329.356 56.1678C331.157 55.5234 332.971 54.9865 334.785 54.5569C336.598 54.1274 338.436 53.7933 340.274 53.5785C342.111 53.3637 344.02 53.2563 345.965 53.2563C349.246 53.2563 352.158 53.6382 354.711 54.3899C357.253 55.1416 359.412 56.2632 361.19 57.7308C362.968 59.1985 364.316 60.9883 365.247 63.1122C366.178 65.2361 366.643 67.6463 366.643 70.3549L366.691 101.044H351.215L351.167 72.1805H351.144V72.1686Z" fill="#2B1809"/>
<path d="M373.957 53.9009H389.743V101.032H373.957V53.9009ZM406.663 75.7006C406.663 74.3643 406.472 73.1711 406.102 72.121C405.732 71.071 405.195 70.1761 404.515 69.4363C403.835 68.6966 403.011 68.1238 402.057 67.742C401.102 67.3602 400.005 67.1573 398.788 67.1573C397.391 67.1573 396.139 67.4198 395.017 67.9448C393.895 68.4698 392.941 69.1977 392.165 70.1403C391.378 71.083 390.781 72.2046 390.352 73.4932C389.922 74.7819 389.719 76.2018 389.719 77.741H386.008C386.008 73.7319 386.45 70.2119 387.345 67.1693C388.228 64.1385 389.504 61.5851 391.163 59.5209C392.822 57.4566 394.838 55.8935 397.224 54.8316C399.611 53.7696 402.296 53.2446 405.29 53.2446C407.88 53.2446 410.218 53.6622 412.33 54.5094C414.442 55.3566 416.244 56.5617 417.736 58.1248C419.227 59.6879 420.396 61.5851 421.22 63.7925C422.043 65.9999 422.461 68.4818 422.461 71.25V101.032H406.675V75.7006H406.663Z" fill="#2B1809"/>
</svg>
